<svg xmlns="http://www.w3.org/2000/svg" version="1.1" xmlns:xlink="http://www.w3.org/1999/xlink" xmlns:svgjs="http://svgjs.dev/svgjs" width="1500" height="1500" viewBox="0 0 1500 1500"><rect width="1500" height="1500" fill="#510c76"></rect><g transform="matrix(0.6666666666666666,0,0,0.6666666666666666,249.93757218491731,187.19032258064516)"><svg viewBox="0 0 221 248" data-background-color="#510c76" preserveAspectRatio="xMidYMid meet" height="1683" width="1500" xmlns="http://www.w3.org/2000/svg" xmlns:xlink="http://www.w3.org/1999/xlink"><g id="tight-bounds" transform="matrix(1,0,0,1,0.013796547133267723,0.4000000000000057)"><svg viewBox="0 0 220.97240690573346 247.2" height="247.2" width="220.97240690573346"><g><svg viewBox="0 0 220.97240690573346 247.2" height="247.2" width="220.97240690573346"><g><svg viewBox="0 0 395.52000000000004 442.46494559707463" height="247.2" width="220.97240690573346"><g transform="matrix(1,0,0,1,0,321.8256459727778)"><svg viewBox="0 0 395.52000000000004 120.63929962429684" height="120.63929962429684" width="395.52000000000004"><g id="textblocktransform"><svg viewBox="0 0 395.52000000000004 120.63929962429684" height="120.63929962429684" width="395.52000000000004" id="textblock"><g><svg viewBox="0 0 395.52000000000004 70.48116872692246" height="70.48116872692246" width="395.52000000000004"><g transform="matrix(1,0,0,1,0,0)"><svg width="395.52000000000004" viewBox="2.05 -41.19 304.13 54.2" height="70.48116872692246" data-palette-color="#f7f7f7"><path d="M40.67-17.63L40.67-17.63Q40.67-13.38 39.21-9.97 37.74-6.57 35.16-4.2 32.57-1.83 29.03-0.56 25.49 0.71 21.36 0.71L21.36 0.71Q17.24 0.71 13.7-0.56 10.16-1.83 7.57-4.2 4.98-6.57 3.52-9.97 2.05-13.38 2.05-17.63L2.05-17.63Q2.05-21.95 3.5-25.35 4.96-28.76 7.53-31.12 10.11-33.47 13.65-34.73 17.19-35.99 21.36-35.99L21.36-35.99Q25.54-35.99 29.08-34.73 32.62-33.47 35.19-31.12 37.77-28.76 39.22-25.35 40.67-21.95 40.67-17.63ZM30.81-17.63L30.81-17.63Q30.81-19.24 30.66-20.92 30.52-22.61 30.13-24.19 29.74-25.78 29.06-27.17 28.39-28.56 27.34-29.6 26.29-30.64 24.82-31.24 23.34-31.84 21.36-31.84L21.36-31.84Q19.36-31.84 17.87-31.24 16.38-30.64 15.33-29.61 14.28-28.59 13.62-27.2 12.96-25.81 12.59-24.23 12.21-22.66 12.06-20.96 11.91-19.26 11.91-17.63L11.91-17.63Q11.91-16.02 12.06-14.33 12.21-12.65 12.6-11.07 12.99-9.5 13.66-8.11 14.33-6.71 15.38-5.68 16.43-4.64 17.91-4.03 19.38-3.42 21.36-3.42L21.36-3.42Q23.29-3.42 24.73-4.04 26.17-4.66 27.22-5.73 28.27-6.79 28.97-8.19 29.66-9.59 30.07-11.17 30.47-12.74 30.64-14.4 30.81-16.06 30.81-17.63ZM69.77-25.71L69.77-25.71 65.13-18.02Q64.84-18.99 64.38-20.21 63.91-21.44 63.23-22.5 62.55-23.56 61.59-24.28 60.64-25 59.4-25L59.4-25Q58.25-25 57.41-24.41 56.56-23.83 55.98-22.89 55.39-21.95 55.01-20.76 54.64-19.58 54.43-18.37 54.22-17.16 54.15-16.05 54.07-14.94 54.07-14.14L54.07-14.14 54.07 0 45.8 0 45.8-28.2 48.97-28.2 52.32-21.63Q53-23.22 53.88-24.55 54.76-25.88 55.91-26.84 57.05-27.81 58.51-28.34 59.96-28.88 61.79-28.88L61.79-28.88Q62.74-28.88 63.91-28.72 65.09-28.56 66.21-28.19 67.33-27.81 68.28-27.2 69.24-26.59 69.77-25.71ZM101.02-38.57L101.02 0 97.85 0 94.18-6.13Q93.65-4.59 92.71-3.34 91.77-2.1 90.53-1.21 89.3-0.32 87.82 0.17 86.35 0.66 84.71 0.66L84.71 0.66Q81.49 0.66 78.95-0.49 76.41-1.64 74.65-3.63 72.9-5.62 71.97-8.3 71.04-10.99 71.04-14.06L71.04-14.06Q71.04-17.14 71.97-19.82 72.9-22.51 74.65-24.49 76.41-26.46 78.95-27.61 81.49-28.76 84.71-28.76L84.71-28.76Q87.18-28.76 89.24-27.81 91.3-26.86 92.77-24.83L92.77-24.83 92.77-38.57 101.02-38.57ZM92.72-14.06L92.72-14.06Q92.72-15.04 92.57-16.21 92.43-17.38 92.11-18.58 91.79-19.78 91.28-20.9 90.77-22.02 90.02-22.9 89.28-23.78 88.29-24.3 87.3-24.83 86.03-24.83L86.03-24.83Q84.64-24.83 83.61-24.33 82.59-23.83 81.86-22.99 81.12-22.14 80.65-21.04 80.17-19.95 79.9-18.75 79.63-17.55 79.52-16.35 79.41-15.14 79.41-14.06L79.41-14.06Q79.41-12.99 79.52-11.78 79.63-10.57 79.9-9.38 80.17-8.18 80.65-7.07 81.12-5.96 81.86-5.11 82.59-4.27 83.61-3.77 84.64-3.27 86.03-3.27L86.03-3.27Q87.42-3.27 88.47-3.76 89.52-4.25 90.27-5.09 91.01-5.93 91.49-7.02 91.96-8.11 92.23-9.31 92.5-10.52 92.61-11.74 92.72-12.96 92.72-14.06ZM114.69-13.38L114.69-13.38Q116.2-13.04 117.72-12.84 119.23-12.65 120.77-12.65L120.77-12.65Q122.38-12.65 123.76-12.95 125.14-13.26 126.15-13.98 127.17-14.7 127.75-15.89 128.34-17.09 128.34-18.87L128.34-18.87Q128.34-20.31 127.95-21.51 127.56-22.71 126.79-23.56 126.02-24.41 124.89-24.89 123.77-25.37 122.28-25.37L122.28-25.37Q120.89-25.37 119.78-24.85 118.67-24.34 117.83-23.47 116.98-22.61 116.39-21.46 115.79-20.31 115.4-19.07 115.01-17.82 114.84-16.55 114.67-15.28 114.67-14.16L114.67-14.16Q114.67-13.96 114.67-13.77 114.67-13.57 114.69-13.38ZM135.03-18.95L135.03-18.95Q135.03-17.21 134.47-15.86 133.9-14.5 132.94-13.48 131.97-12.45 130.71-11.74 129.44-11.04 128-10.58 126.56-10.13 125.03-9.94 123.5-9.74 122.06-9.74L122.06-9.74Q120.23-9.74 118.45-10 116.67-10.25 114.93-10.82L114.93-10.82Q115.2-9.2 115.79-7.75 116.37-6.3 117.35-5.21 118.33-4.13 119.76-3.49 121.18-2.86 123.14-2.86L123.14-2.86Q124.43-2.86 125.6-3.25 126.77-3.64 127.75-4.35 128.73-5.05 129.47-6.03 130.22-7.01 130.68-8.2L130.68-8.2 134.25-6.88Q133.44-4.96 132.04-3.55 130.63-2.15 128.86-1.23 127.09-0.32 125.1 0.12 123.11 0.56 121.16 0.56L121.16 0.56Q117.94 0.56 115.2-0.52 112.47-1.61 110.49-3.56 108.51-5.52 107.39-8.23 106.27-10.94 106.27-14.16L106.27-14.16Q106.27-17.38 107.39-20.09 108.51-22.8 110.49-24.76 112.47-26.71 115.2-27.8 117.94-28.88 121.16-28.88L121.16-28.88Q122.72-28.88 124.36-28.66 125.99-28.44 127.53-27.97 129.07-27.49 130.44-26.73 131.8-25.98 132.82-24.87 133.83-23.75 134.43-22.29 135.03-20.83 135.03-18.95ZM164.15-25.71L164.15-25.71 159.51-18.02Q159.22-18.99 158.75-20.21 158.29-21.44 157.61-22.5 156.92-23.56 155.97-24.28 155.02-25 153.77-25L153.77-25Q152.63-25 151.78-24.41 150.94-23.83 150.36-22.89 149.77-21.95 149.39-20.76 149.01-19.58 148.81-18.37 148.6-17.16 148.53-16.05 148.45-14.94 148.45-14.14L148.45-14.14 148.45 0 140.18 0 140.18-28.2 143.35-28.2 146.69-21.63Q147.38-23.22 148.26-24.55 149.14-25.88 150.28-26.84 151.43-27.81 152.88-28.34 154.34-28.88 156.17-28.88L156.17-28.88Q157.12-28.88 158.29-28.72 159.46-28.56 160.59-28.19 161.71-27.81 162.66-27.2 163.61-26.59 164.15-25.71ZM211.09-10.74L211.09-10.74Q211.09-8.47 210.52-6.74 209.95-5 208.91-3.74 207.87-2.47 206.45-1.61 205.04-0.76 203.37-0.24 201.69 0.27 199.83 0.49 197.96 0.71 196.03 0.71L196.03 0.71Q193.49 0.71 191.34 0.33 189.19-0.05 187.3-0.87 185.41-1.68 183.66-2.98 181.92-4.27 180.19-6.13L180.19-6.13 185.17-11.18Q185.85-9.5 187.05-8.07 188.24-6.64 189.67-5.62 191.1-4.59 192.64-4 194.17-3.42 195.54-3.42L195.54-3.42Q197.15-3.42 198.57-3.65 199.99-3.88 201.03-4.42 202.08-4.96 202.68-5.85 203.28-6.74 203.28-8.08L203.28-8.08Q203.28-9.11 202.82-9.84 202.35-10.57 201.61-11.1 200.86-11.62 199.91-11.99 198.96-12.35 197.97-12.61 196.98-12.87 196.03-13.07 195.08-13.28 194.35-13.5L194.35-13.5Q192.9-13.92 191.34-14.39 189.78-14.87 188.27-15.48 186.75-16.09 185.4-16.88 184.04-17.68 183.02-18.76 181.99-19.85 181.38-21.28 180.77-22.71 180.77-24.56L180.77-24.56Q180.77-26.78 181.32-28.5 181.87-30.22 182.87-31.49 183.87-32.76 185.24-33.63 186.61-34.5 188.24-35.02 189.88-35.55 191.72-35.78 193.56-36.01 195.49-36.01L195.49-36.01Q198.13-36.01 200.29-35.52 202.45-35.03 204.28-34.13 206.11-33.23 207.64-31.97 209.16-30.71 210.51-29.17L210.51-29.17 205.53-24.12Q204.94-25.88 203.9-27.29 202.87-28.71 201.6-29.72 200.33-30.74 198.94-31.29 197.54-31.84 196.25-31.84L196.25-31.84Q194.57-31.84 193.15-31.6 191.73-31.37 190.72-30.85 189.71-30.32 189.15-29.43 188.58-28.54 188.58-27.22L188.58-27.22Q188.58-26.17 189-25.44 189.41-24.71 190.11-24.19 190.81-23.68 191.68-23.35 192.56-23.02 193.5-22.78 194.44-22.53 195.36-22.35 196.27-22.17 197.03-21.95L197.03-21.95Q198.5-21.53 200.11-21.07 201.72-20.61 203.28-19.98 204.84-19.36 206.26-18.55 207.68-17.75 208.75-16.64 209.82-15.53 210.46-14.07 211.09-12.62 211.09-10.74ZM224.54-32.62L224.54 0 216.29 0 216.29-41.19 219.46-41.19 224.54-32.62ZM240.09-35.01L240.09-35.01Q240.09-34.08 239.74-33.25 239.38-32.42 238.77-31.81 238.16-31.2 237.33-30.85 236.5-30.49 235.58-30.49L235.58-30.49Q234.65-30.49 233.83-30.85 233.01-31.2 232.4-31.81 231.79-32.42 231.44-33.25 231.08-34.08 231.08-35.01L231.08-35.01Q231.08-35.94 231.44-36.76 231.79-37.57 232.4-38.18 233.01-38.79 233.83-39.15 234.65-39.5 235.58-39.5L235.58-39.5Q236.5-39.5 237.33-39.15 238.16-38.79 238.77-38.18 239.38-37.57 239.74-36.76 240.09-35.94 240.09-35.01ZM239.73-28.17L239.73 0 231.45 0 231.45-28.17 239.73-28.17ZM276.61-14.16L276.61-14.16Q276.61-11.08 275.69-8.4 274.76-5.71 273-3.72 271.24-1.73 268.7-0.59 266.16 0.56 262.94 0.56L262.94 0.56Q260.48 0.56 258.41-0.4 256.35-1.37 254.88-3.37L254.88-3.37 254.88 13.01 246.63 13.01 246.63-28.2 249.81-28.2 253.47-22.07Q254.01-23.61 254.95-24.87 255.89-26.12 257.12-27.01 258.35-27.91 259.83-28.39 261.31-28.88 262.94-28.88L262.94-28.88Q266.16-28.88 268.7-27.73 271.24-26.59 273-24.6 274.76-22.61 275.69-19.92 276.61-17.24 276.61-14.16ZM268.24-14.16L268.24-14.16Q268.24-15.23 268.13-16.44 268.02-17.65 267.75-18.85 267.48-20.04 267.01-21.14 266.53-22.24 265.8-23.08 265.07-23.93 264.03-24.43 262.99-24.93 261.62-24.93L261.62-24.93Q260.21-24.93 259.17-24.44 258.13-23.95 257.39-23.11 256.64-22.27 256.17-21.18 255.69-20.09 255.42-18.9 255.15-17.7 255.04-16.48 254.93-15.26 254.93-14.16L254.93-14.16Q254.93-13.18 255.08-12 255.23-10.82 255.54-9.62 255.86-8.42 256.37-7.3 256.89-6.18 257.63-5.3 258.38-4.42 259.36-3.89 260.35-3.37 261.62-3.37L261.62-3.37Q263.01-3.37 264.04-3.87 265.07-4.37 265.8-5.21 266.53-6.05 267.01-7.15 267.48-8.25 267.75-9.45 268.02-10.64 268.13-11.87 268.24-13.09 268.24-14.16ZM306.18-9.01L306.18-9.01Q306.18-7.15 305.64-5.71 305.1-4.27 304.17-3.21 303.25-2.15 301.98-1.43 300.71-0.71 299.25-0.27 297.8 0.17 296.22 0.37 294.63 0.56 293.07 0.56L293.07 0.56Q290.97 0.56 289.35 0.29 287.74 0.02 286.28-0.57 284.81-1.17 283.36-2.12 281.91-3.08 280.13-4.44L280.13-4.44 284.94-8.37Q285.6-7.13 286.68-6.12 287.77-5.1 288.94-4.37 290.11-3.64 291.21-3.25 292.31-2.86 292.99-2.86L292.99-2.86Q293.55-2.86 294.26-2.89 294.97-2.93 295.7-3.04 296.43-3.15 297.14-3.37 297.85-3.59 298.4-3.97 298.95-4.35 299.28-4.92 299.61-5.49 299.61-6.3L299.61-6.3Q299.61-7.13 299.18-7.75 298.75-8.37 298.07-8.84 297.39-9.3 296.51-9.62 295.63-9.94 294.74-10.18 293.85-10.42 293.02-10.61 292.19-10.79 291.58-10.96L291.58-10.96Q290.45-11.28 289.21-11.61 287.96-11.94 286.74-12.37 285.52-12.79 284.41-13.38 283.3-13.96 282.46-14.78 281.62-15.6 281.12-16.71 280.61-17.82 280.61-19.31L280.61-19.31Q280.61-22.05 281.7-23.89 282.79-25.73 284.57-26.84 286.35-27.95 288.62-28.42 290.89-28.88 293.24-28.88L293.24-28.88Q294.85-28.88 296.63-28.55 298.41-28.22 300.1-27.58 301.78-26.93 303.25-26 304.71-25.07 305.69-23.88L305.69-23.88 300.88-19.92Q300.34-21.39 299.47-22.44 298.61-23.49 297.59-24.16 296.58-24.83 295.52-25.15 294.46-25.46 293.55-25.46L293.55-25.46Q292.68-25.46 291.58-25.39 290.48-25.32 289.51-24.98 288.55-24.63 287.88-23.94 287.21-23.24 287.21-22.02L287.21-22.02Q287.21-21.14 287.61-20.52 288.01-19.9 288.67-19.45 289.33-18.99 290.17-18.69 291.02-18.38 291.89-18.15 292.77-17.92 293.6-17.75 294.43-17.58 295.09-17.38L295.09-17.38Q296.22-17.07 297.47-16.74 298.73-16.41 299.95-15.98 301.17-15.55 302.31-14.98 303.44-14.4 304.3-13.57 305.15-12.74 305.66-11.63 306.18-10.52 306.18-9.01Z" opacity="1" transform="matrix(1,0,0,1,0,0)" fill="#f7f7f7" class="wordmark-text-0" data-fill-palette-color="primary" id="text-0"></path></svg></g></svg></g><g transform="matrix(1,0,0,1,0,87.12008111529941)"><svg viewBox="0 0 395.52000000000004 33.51921850899743" height="33.51921850899743" width="395.52000000000004"><g transform="matrix(1,0,0,1,0,0)"><svg width="395.52000000000004" viewBox="1.25 -36.84 569.76 48.290000000000006" height="33.51921850899743" data-palette-color="#f7f7f7"><path d="M27-23.46L27-23.46Q27-19.8 25.27-17.38 23.54-14.97 20.61-13.76 17.68-12.55 14.09-12.55L14.09-12.55 13.94-12.55Q12.96-12.55 11.78-12.63 10.6-12.72 10.4-12.74L10.4-12.74 10.4-3.44Q10.4-3.08 10.66-2.73 10.91-2.39 11.45-2.34L11.45-2.34 14.75-2.15 14.75 0 1.61 0 1.61-2.15 4.25-2.34Q4.79-2.39 5.07-2.73 5.35-3.08 5.35-3.44L5.35-3.44 5.35-30.1Q5.35-30.47 5.07-30.82 4.79-31.18 4.25-31.2L4.25-31.2 1.25-31.4 1.25-33.54 13.21-33.54Q20.29-33.54 23.65-31.27 27-29 27-23.46ZM21.8-23.39L21.8-23.39Q21.8-27.03 19.76-29.06 17.72-31.1 12.94-31.1L12.94-31.1Q12.26-31.1 11.33-31.08 10.4-31.05 10.4-31.05L10.4-31.05 10.4-15.31Q10.52-15.31 11.51-15.17 12.5-15.04 13.21-15.04L13.21-15.04 13.35-15.04Q17.24-15.04 19.52-17.07 21.8-19.09 21.8-23.39ZM39.84-32.35L39.84-32.35Q39.84-31.08 38.96-30.16 38.08-29.25 36.81-29.25L36.81-29.25Q35.54-29.25 34.63-30.16 33.71-31.08 33.71-32.35L33.71-32.35Q33.71-33.64 34.63-34.52 35.54-35.4 36.81-35.4L36.81-35.4Q38.08-35.4 38.96-34.52 39.84-33.64 39.84-32.35ZM42.4-1.95L42.4 0 30.66 0 30.66-1.95 33.1-2.1Q34.15-2.17 34.15-3.2L34.15-3.2 34.15-21.04 30.71-21.04 30.71-22.8 36.81-24.71 38.79-24.71 38.79-3.2Q38.79-2.73 39.1-2.44 39.4-2.15 39.84-2.1L39.84-2.1 42.4-1.95ZM65.72-4.71L65.72-4.71 65.72-1.86Q64.03-0.95 61.92-0.17 59.81 0.61 57.27 0.61L57.27 0.61Q53.78 0.61 51.2-1.03 48.63-2.66 47.22-5.48 45.82-8.3 45.82-11.89L45.82-11.89Q45.82-16.09 47.49-18.95 49.16-21.8 51.91-23.25 54.66-24.71 57.86-24.71L57.86-24.71Q61.15-24.71 63.39-23.43 65.62-22.14 65.62-19.7L65.62-19.7Q65.62-18.24 64.7-17.49 63.79-16.75 62.67-16.75L62.67-16.75Q61.84-16.75 61.23-17.03 60.62-17.31 60.15-17.6L60.15-17.6 60.15-21.95Q59-22.61 58.05-22.61L58.05-22.61Q55.83-22.61 54.23-21.3 52.63-20 51.78-17.72 50.92-15.45 50.92-12.55L50.92-12.55Q50.92-9.79 51.85-7.51 52.78-5.22 54.62-3.88 56.46-2.54 59.2-2.54L59.2-2.54Q60.93-2.54 62.52-3.1 64.11-3.66 65.72-4.71ZM93.6-1.95L93.6 0 85.59 0 85.59-1.95 79.34-11.35 76.56-11.35 76.56-3.2Q76.56-2.17 77.6-2.1L77.6-2.1 79.75-1.95 79.75 0 68.4 0 68.4-1.95 70.84-2.1Q71.89-2.17 71.89-3.2L71.89-3.2 71.89-33.25 68.11-33.25 68.11-34.91 74.5-36.84 76.56-36.84 76.56-12.79 77.56-12.79 84.9-21.09Q85-21.22 85-21.41L85-21.41Q85-21.9 84.49-21.95L84.49-21.95 82.44-22.14 82.44-24.1 92.16-24.1 92.16-22.14 88.96-21.8 82.34-14.75 90.96-2.25 93.6-1.95ZM107.61-1.95L107.61 0 95.45 0 95.45-1.95 98.11-2.1Q98.45-2.1 98.83-2.47 99.21-2.83 99.21-3.15L99.21-3.15 99.21-33.25 95.4-33.25 95.4-34.91 101.8-36.84 103.85-36.84 103.85-3.15Q103.85-2.83 104.21-2.47 104.58-2.1 104.9-2.1L104.9-2.1 107.61-1.95ZM131.75-5.54L131.75-2.49Q129.65-1.2 127.22-0.29 124.79 0.61 122.25 0.61L122.25 0.61Q119.23 0.61 116.58-0.74 113.93-2.1 112.29-4.86 110.66-7.62 110.66-11.79L110.66-11.79Q110.66-15.7 112.17-18.6 113.68-21.51 116.34-23.11 119.01-24.71 122.4-24.71L122.4-24.71Q127.06-24.71 129.41-21.81 131.75-18.92 131.75-14.45L131.75-14.45Q131.75-14.21 131.75-13.81 131.75-13.4 131.7-13.06L131.7-13.06 115.49-13.06Q115.49-11.16 115.89-9.27 116.3-7.37 117.25-5.83 118.2-4.3 119.81-3.37 121.42-2.44 123.84-2.44L123.84-2.44Q125.99-2.44 128.03-3.43 130.07-4.42 131.75-5.54L131.75-5.54ZM115.76-15.31L126.75-15.31 126.75-16.41Q126.75-18.87 125.56-20.56 124.38-22.24 121.89-22.24L121.89-22.24Q119.42-22.24 117.69-20.39 115.95-18.53 115.76-15.31L115.76-15.31ZM152.5-23.95L152.5-18.99 150.55-18.99Q150.08-19.56 149.44-19.96 148.79-20.36 147.86-20.36L147.86-20.36Q146.66-20.36 145.41-19.53 144.15-18.7 142.86-17.26L142.86-17.26 142.86-3.2Q142.86-2.15 143.91-2.1L143.91-2.1 147.2-1.95 147.2 0 134.7 0 134.7-1.9 137.17-2.1Q137.61-2.15 137.91-2.44 138.22-2.73 138.22-3.2L138.22-3.2 138.22-20.56 134.6-20.56 134.6-22.19 140.81-24.1 142.86-24.1 142.86-19.65Q143.59-20.46 144.69-21.66 145.79-22.85 147.03-23.78 148.28-24.71 149.45-24.71L149.45-24.71Q150.23-24.71 151.13-24.46 152.04-24.22 152.5-23.95L152.5-23.95ZM217.78-2.15L217.78 0 205.16 0 205.16-2.15 207.82-2.34Q208.35-2.39 208.63-2.73 208.92-3.08 208.92-3.44L208.92-3.44 208.92-31.01 197.42 0 194.93 0 183.82-30.54 183.82-3.44Q183.82-3.08 184.1-2.73 184.38-2.39 184.92-2.34L184.92-2.34 187.77-2.15 187.77 0 176.96 0 176.96-2.15 179.81-2.34Q180.35-2.39 180.61-2.73 180.86-3.08 180.86-3.44L180.86-3.44 180.86-30.1Q180.86-30.47 180.61-30.82 180.35-31.18 179.81-31.2L179.81-31.2 176.96-31.4 176.96-33.54 188.16-33.54 188.16-32.2 197.22-7.64 206.28-32.06 206.28-33.54 217.78-33.54 217.78-31.4 215.07-31.2Q214.53-31.18 214.25-30.82 213.97-30.47 213.97-30.1L213.97-30.1 213.97-3.44Q213.97-3.08 214.25-2.73 214.53-2.39 215.07-2.34L215.07-2.34 217.78-2.15ZM242.12-5.54L242.12-2.49Q240.02-1.2 237.59-0.29 235.16 0.61 232.62 0.61L232.62 0.61Q229.59 0.61 226.94-0.74 224.29-2.1 222.66-4.86 221.02-7.62 221.02-11.79L221.02-11.79Q221.02-15.7 222.54-18.6 224.05-21.51 226.71-23.11 229.37-24.71 232.77-24.71L232.77-24.71Q237.43-24.71 239.77-21.81 242.12-18.92 242.12-14.45L242.12-14.45Q242.12-14.21 242.12-13.81 242.12-13.4 242.07-13.06L242.07-13.06 225.86-13.06Q225.86-11.16 226.26-9.27 226.66-7.37 227.61-5.83 228.57-4.3 230.18-3.37 231.79-2.44 234.21-2.44L234.21-2.44Q236.35-2.44 238.39-3.43 240.43-4.42 242.12-5.54L242.12-5.54ZM226.12-15.31L237.11-15.31 237.11-16.41Q237.11-18.87 235.93-20.56 234.74-22.24 232.25-22.24L232.25-22.24Q229.79-22.24 228.05-20.39 226.32-18.53 226.12-15.31L226.12-15.31ZM285.23-1.95L285.23 0 274.02 0 274.02-1.95 276.12-2.1Q277.17-2.17 277.17-3.2L277.17-3.2 277.17-15.94Q277.17-18.26 276.21-19.65 275.24-21.04 272.73-21.04L272.73-21.04Q271.48-21.04 270.01-20.65 268.53-20.26 267.38-19.65L267.38-19.65 267.38-3.2Q267.38-2.17 268.43-2.1L268.43-2.1 270.53-1.95 270.53 0 259.57 0 259.57-1.95 261.67-2.1Q262.72-2.17 262.72-3.2L262.72-3.2 262.72-16.26Q262.72-18.38 261.72-19.71 260.72-21.04 258.32-21.04L258.32-21.04Q256.91-21.04 255.37-20.57 253.83-20.09 252.98-19.6L252.98-19.6 252.98-3.2Q252.98-2.17 254.03-2.1L254.03-2.1 256.13-1.95 256.13 0 244.82 0 244.82-1.95 247.27-2.1Q248.31-2.17 248.31-3.2L248.31-3.2 248.31-20.56 244.87-20.56 244.87-22.19 250.93-24.1 252.98-24.1 252.98-21.61Q254.1-22.29 255.5-23 256.91-23.71 258.37-24.21 259.84-24.71 261.13-24.71L261.13-24.71Q263.31-24.71 264.65-23.6 265.99-22.49 266.63-21.24L266.63-21.24Q267.63-21.88 269.16-22.69 270.7-23.51 272.35-24.11 274-24.71 275.32-24.71L275.32-24.71Q277.95-24.71 279.35-23.5 280.74-22.29 281.25-20.52 281.76-18.75 281.76-17.04L281.76-17.04 281.76-3.2Q281.76-2.73 282.07-2.44 282.37-2.15 282.81-2.1L282.81-2.1 285.23-1.95ZM311.81-12.01L311.81-12.01Q311.81-8.47 310.35-5.6 308.88-2.73 306.21-1.06 303.54 0.61 299.87 0.61L299.87 0.61Q296.24 0.61 293.58-1.05 290.91-2.71 289.47-5.57 288.03-8.42 288.03-12.01L288.03-12.01Q288.03-15.58 289.49-18.46 290.94-21.34 293.64-23.02 296.33-24.71 300.02-24.71L300.02-24.71Q303.76-24.71 306.39-23 309.03-21.29 310.42-18.41 311.81-15.53 311.81-12.01ZM306.61-12.06L306.61-12.06Q306.61-14.79 305.89-17.16 305.17-19.53 303.7-21 302.22-22.46 299.97-22.46L299.97-22.46Q297.65-22.46 296.18-21 294.7-19.53 293.99-17.16 293.28-14.79 293.28-12.06L293.28-12.06Q293.28-9.35 294-6.97 294.72-4.59 296.2-3.13 297.68-1.66 299.92-1.66L299.92-1.66Q302.22-1.66 303.7-3.13 305.17-4.59 305.89-6.96 306.61-9.33 306.61-12.06ZM332.56-23.95L332.56-18.99 330.61-18.99Q330.15-19.56 329.5-19.96 328.85-20.36 327.92-20.36L327.92-20.36Q326.73-20.36 325.47-19.53 324.21-18.7 322.92-17.26L322.92-17.26 322.92-3.2Q322.92-2.15 323.97-2.1L323.97-2.1 327.26-1.95 327.26 0 314.76 0 314.76-1.9 317.23-2.1Q317.67-2.15 317.98-2.44 318.28-2.73 318.28-3.2L318.28-3.2 318.28-20.56 314.67-20.56 314.67-22.19 320.87-24.1 322.92-24.1 322.92-19.65Q323.65-20.46 324.75-21.66 325.85-22.85 327.09-23.78 328.34-24.71 329.51-24.71L329.51-24.71Q330.29-24.71 331.2-24.46 332.1-24.22 332.56-23.95L332.56-23.95ZM343.96-32.35L343.96-32.35Q343.96-31.08 343.08-30.16 342.2-29.25 340.93-29.25L340.93-29.25Q339.66-29.25 338.75-30.16 337.83-31.08 337.83-32.35L337.83-32.35Q337.83-33.64 338.75-34.52 339.66-35.4 340.93-35.4L340.93-35.4Q342.2-35.4 343.08-34.52 343.96-33.64 343.96-32.35ZM346.53-1.95L346.53 0 334.78 0 334.78-1.95 337.22-2.1Q338.27-2.17 338.27-3.2L338.27-3.2 338.27-21.04 334.83-21.04 334.83-22.8 340.93-24.71 342.91-24.71 342.91-3.2Q342.91-2.73 343.22-2.44 343.52-2.15 343.96-2.1L343.96-2.1 346.53-1.95ZM372.84-1.95L372.84 0 365.44 0 364.78-2.95Q364.78-2.95 364.04-2.42 363.3-1.88 362.07-1.17 360.85-0.46 359.38 0.07 357.9 0.61 356.43 0.61L356.43 0.61Q353.72 0.61 351.83-1.2 349.94-3 349.94-6.15L349.94-6.15Q349.94-7.54 350.44-8.74 350.94-9.94 352.44-11.02 353.94-12.11 356.91-13.15 359.88-14.18 364.78-15.26L364.78-15.26 364.78-17.41Q364.78-22.34 360.12-22.34L360.12-22.34Q358.83-22.34 357.89-22.09 356.95-21.85 356.58-21.7L356.58-21.7 356.58-17.36 352.94-17.36Q352.26-17.36 351.67-17.61 351.09-17.87 351.09-18.8L351.09-18.8Q351.09-20.85 352.65-22.16 354.21-23.46 356.62-24.08 359.02-24.71 361.49-24.71L361.49-24.71Q364.59-24.71 366.3-23.74 368.01-22.78 368.69-21.08 369.37-19.38 369.37-17.21L369.37-17.21 369.37-3.2Q369.37-2.73 369.68-2.44 369.98-2.15 370.42-2.1L370.42-2.1 372.84-1.95ZM364.78-4.71L364.78-4.71 364.78-13.35Q361.42-12.52 359.43-11.68 357.44-10.84 356.46-10 355.48-9.16 355.18-8.29 354.87-7.42 354.87-6.49L354.87-6.49Q354.87-4.96 355.86-3.65 356.85-2.34 358.63-2.34L358.63-2.34Q359.63-2.34 360.71-2.7 361.78-3.05 362.71-3.53 363.64-4 364.21-4.36 364.78-4.71 364.78-4.71ZM387.17-1.95L387.17 0 375.01 0 375.01-1.95 377.67-2.1Q378.01-2.1 378.39-2.47 378.77-2.83 378.77-3.15L378.77-3.15 378.77-33.25 374.96-33.25 374.96-34.91 381.36-36.84 383.41-36.84 383.41-3.15Q383.41-2.83 383.78-2.47 384.14-2.1 384.46-2.1L384.46-2.1 387.17-1.95ZM436.68-9.3L436.68 0 412.36 0 412.36-2.15 415.27-2.34Q415.8-2.39 416.06-2.73 416.31-3.08 416.31-3.44L416.31-3.44 416.31-30.1Q416.31-30.47 416.06-30.82 415.8-31.18 415.27-31.2L415.27-31.2 412.36-31.4 412.36-33.54 425.13-33.54 425.13-31.4 422.47-31.2Q421.93-31.18 421.65-30.82 421.37-30.47 421.37-30.1L421.37-30.1 421.37-2.44 431.87-2.44Q432.21-2.44 432.57-2.71 432.94-2.98 432.97-3.3L432.97-3.3 433.77-9.3 436.68-9.3ZM448.44-32.35L448.44-32.35Q448.44-31.08 447.56-30.16 446.68-29.25 445.41-29.25L445.41-29.25Q444.14-29.25 443.23-30.16 442.31-31.08 442.31-32.35L442.31-32.35Q442.31-33.64 443.23-34.52 444.14-35.4 445.41-35.4L445.41-35.4Q446.68-35.4 447.56-34.52 448.44-33.64 448.44-32.35ZM451-1.95L451 0 439.26 0 439.26-1.95 441.7-2.1Q442.75-2.17 442.75-3.2L442.75-3.2 442.75-21.04 439.31-21.04 439.31-22.8 445.41-24.71 447.39-24.71 447.39-3.2Q447.39-2.73 447.7-2.44 448-2.15 448.44-2.1L448.44-2.1 451-1.95ZM478.76-13.21L478.76-13.21Q478.76-9.45 477.27-6.46 475.78-3.47 472.61-1.73 469.43 0 464.41 0L464.41 0 457.2 0 457.2-33.25 453.42-33.25 453.42-34.91 459.86-36.84 461.87-36.84 461.87-22.85Q462.72-23.27 464.64-23.99 466.55-24.71 468.75-24.71L468.75-24.71Q472.05-24.71 474.27-23.12 476.49-21.53 477.63-18.91 478.76-16.28 478.76-13.21ZM473.66-12.21L473.66-12.21Q473.66-16.94 471.66-19.35 469.65-21.75 466.02-21.75L466.02-21.75Q465.19-21.75 463.91-21.48 462.62-21.22 461.87-20.95L461.87-20.95 461.87-2.39Q461.87-2.39 462.73-2.37 463.6-2.34 464.31-2.34L464.31-2.34Q468.75-2.34 471.2-4.54 473.66-6.74 473.66-12.21ZM499.51-23.95L499.51-18.99 497.56-18.99Q497.09-19.56 496.45-19.96 495.8-20.36 494.87-20.36L494.87-20.36Q493.68-20.36 492.42-19.53 491.16-18.7 489.87-17.26L489.87-17.26 489.87-3.2Q489.87-2.15 490.92-2.1L490.92-2.1 494.21-1.95 494.21 0 481.71 0 481.71-1.9 484.18-2.1Q484.62-2.15 484.92-2.44 485.23-2.73 485.23-3.2L485.23-3.2 485.23-20.56 481.62-20.56 481.62-22.19 487.82-24.1 489.87-24.1 489.87-19.65Q490.6-20.46 491.7-21.66 492.8-22.85 494.04-23.78 495.29-24.71 496.46-24.71L496.46-24.71Q497.24-24.71 498.14-24.46 499.05-24.22 499.51-23.95L499.51-23.95ZM524.63-1.95L524.63 0 517.23 0 516.57-2.95Q516.57-2.95 515.83-2.42 515.08-1.88 513.86-1.17 512.64-0.46 511.17 0.07 509.69 0.61 508.22 0.61L508.22 0.61Q505.51 0.61 503.62-1.2 501.73-3 501.73-6.15L501.73-6.15Q501.73-7.54 502.23-8.74 502.73-9.94 504.23-11.02 505.73-12.11 508.7-13.15 511.67-14.18 516.57-15.26L516.57-15.26 516.57-17.41Q516.57-22.34 511.91-22.34L511.91-22.34Q510.62-22.34 509.68-22.09 508.74-21.85 508.37-21.7L508.37-21.7 508.37-17.36 504.73-17.36Q504.05-17.36 503.46-17.61 502.88-17.87 502.88-18.8L502.88-18.8Q502.88-20.85 504.44-22.16 506-23.46 508.41-24.08 510.81-24.71 513.28-24.71L513.28-24.71Q516.38-24.71 518.09-23.74 519.8-22.78 520.48-21.08 521.16-19.38 521.16-17.21L521.16-17.21 521.16-3.2Q521.16-2.73 521.47-2.44 521.77-2.15 522.21-2.1L522.21-2.1 524.63-1.95ZM516.57-4.71L516.57-4.71 516.57-13.35Q513.2-12.52 511.21-11.68 509.22-10.84 508.25-10 507.27-9.16 506.97-8.29 506.66-7.42 506.66-6.49L506.66-6.49Q506.66-4.96 507.65-3.65 508.64-2.34 510.42-2.34L510.42-2.34Q511.42-2.34 512.5-2.7 513.57-3.05 514.5-3.53 515.43-4 516-4.36 516.57-4.71 516.57-4.71ZM544.5-23.95L544.5-18.99 542.55-18.99Q542.08-19.56 541.44-19.96 540.79-20.36 539.86-20.36L539.86-20.36Q538.67-20.36 537.41-19.53 536.15-18.7 534.86-17.26L534.86-17.26 534.86-3.2Q534.86-2.15 535.91-2.1L535.91-2.1 539.2-1.95 539.2 0 526.7 0 526.7-1.9 529.17-2.1Q529.61-2.15 529.91-2.44 530.22-2.73 530.22-3.2L530.22-3.2 530.22-20.56 526.61-20.56 526.61-22.19 532.81-24.1 534.86-24.1 534.86-19.65Q535.59-20.46 536.69-21.66 537.79-22.85 539.03-23.78 540.28-24.71 541.45-24.71L541.45-24.71Q542.23-24.71 543.13-24.46 544.04-24.22 544.5-23.95L544.5-23.95ZM571.01-24.1L571.01-22.14 568.4-21.85 558.8 1.54Q558.49 2.34 557.82 3.85 557.14 5.35 556.23 6.92 555.31 8.5 554.26 9.55L554.26 9.55Q553.36 10.45 552.27 10.95 551.19 11.45 549.92 11.45L549.92 11.45Q548.14 11.45 547.2 10.58 546.26 9.72 546.26 8.59L546.26 8.59Q546.26 6.93 547.87 5.59L547.87 5.59 552.55 7.74Q553.38 6.91 554.21 5.49 555.05 4.08 555.72 2.56 556.39 1.05 556.75-0.05L556.75-0.05 548.26-21.85 545.5-22.14 545.5-24.1 556.56-24.1 556.56-22.14 554.17-22Q553.36-21.92 553.36-21.19L553.36-21.19Q553.36-21 553.41-20.9L553.41-20.9 559.22-6.15 565.15-20.9Q565.23-21.04 565.23-21.22L565.23-21.22Q565.23-21.95 564.47-22L564.47-22 562.1-22.14 562.1-24.1 571.01-24.1Z" opacity="1" transform="matrix(1,0,0,1,0,0)" fill="#f7f7f7" class="slogan-text-1" data-fill-palette-color="secondary" id="text-1"></path></svg></g></svg></g></svg></g></svg></g><g transform="matrix(1,0,0,1,53.48608940198807,0)"><svg viewBox="0 0 288.5478211960239 288.5478211960239" height="288.5478211960239" width="288.5478211960239"><g><svg></svg></g><g id="icon-0"><svg viewBox="0 0 288.5478211960239 288.5478211960239" height="288.5478211960239" width="288.5478211960239"><g><path d="M0 144.274c0-79.68 64.594-144.274 144.274-144.274 79.68 0 144.274 64.594 144.274 144.274 0 79.68-64.594 144.274-144.274 144.274-79.68 0-144.274-64.594-144.274-144.274zM144.274 282.192c76.17 0 137.918-61.748 137.918-137.918 0-76.17-61.748-137.918-137.918-137.918-76.17 0-137.918 61.748-137.918 137.918 0 76.17 61.748 137.918 137.918 137.918z" data-fill-palette-color="accent" fill="#00a8e2" stroke="transparent"></path></g><g transform="matrix(1,0,0,1,60.93260337675102,69.92283703533487)"><svg viewBox="0 0 166.68261444252187 148.70214712535417" height="148.70214712535417" width="166.68261444252187"><g><svg xmlns="http://www.w3.org/2000/svg" xmlns:xlink="http://www.w3.org/1999/xlink" version="1.1" x="0" y="0" viewBox="8.387 13.005 84.192 75.11" enable-background="new 0 0 100 100" xml:space="preserve" height="148.70214712535417" width="166.68261444252187" class="icon-dxe-0" data-fill-palette-color="accent" id="dxe-0"><g fill="#00a8e2" data-fill-palette-color="accent"><path d="M49.569 22.967C39.594 17.276 28.892 13.842 18.524 13.005V71.356C28.891 72.17 39.574 75.51 49.569 81.055z" fill="#00a8e2" data-fill-palette-color="accent"></path><path d="M82.444 13.005C72.076 13.843 61.373 17.276 51.399 22.967V81.054C61.392 75.509 72.078 72.169 82.444 71.355z" fill="#00a8e2" data-fill-palette-color="accent"></path><path d="M49.229 84.073C50.043 84.351 50.9 84.363 51.714 84.085 63.371 79.042 75.579 76.772 87.512 77.295V19.524A67 67 0 0 0 84.272 19.469V73.063L83.42 73.119C72.748 73.816 61.688 77.296 51.399 83.167A2.83 2.83 0 0 1 49.569 83.167C39.279 77.296 28.22 73.816 17.548 73.119L16.694 73.063V19.469A66 66 0 0 0 13.455 19.524V77.295C25.387 76.771 37.569 79.03 49.229 84.073" fill="#00a8e2" data-fill-palette-color="accent"></path><path d="M92.579 26.009C91.509 25.86 90.422 25.781 89.342 25.674V79.224L88.374 79.168C76.179 78.469 63.314 80.945 51.399 86.233L50.483 86.614 49.568 86.233C37.651 80.945 24.787 78.468 12.592 79.168L11.625 79.224V25.674C10.544 25.782 9.457 25.861 8.387 26.009V84.716A5 5 0 0 1 9.431 85.464C22.382 83.714 35.824 83.928 48.611 88.115A19 19 0 0 1 50.484 88.02C51.145 88.02 51.769 88.057 52.356 88.115 65.141 83.927 78.585 83.714 91.535 85.464 91.535 85.464 92.009 85.002 92.579 84.716z" fill="#00a8e2" data-fill-palette-color="accent"></path></g></svg></g></svg></g></svg></g></svg></g><g></g></svg></g></svg></g><defs></defs></svg><rect width="220.97240690573346" height="247.2" fill="none" stroke="none" visibility="hidden"></rect></g></svg></g></svg>